<?xml version="1.0" encoding="utf-8"?>
<!-- Generator: Adobe Illustrator 21.1.0, SVG Export Plug-In . SVG Version: 6.00 Build 0)  -->
<svg version="1.1" id="Layer_1" xmlns="http://www.w3.org/2000/svg" xmlns:xlink="http://www.w3.org/1999/xlink" x="0px" y="0px"
	 viewBox="0 0 69.4 17.7" style="enable-background:new 0 0 69.4 17.7;" xml:space="preserve">
<style type="text/css">
	.st0{fill:#9F9F9F;stroke:#9F9F9F;stroke-miterlimit:10;}
</style>
<g>
	<path class="st0" d="M8.9,9.4H2.6v5.8h7v1.8H0.5V0.8h8.7v1.8H2.6v5.1h6.3V9.4z"/>
	<path class="st0" d="M12.3,16.9V0.8h2.3l5.2,8.2c1.2,1.9,2.1,3.6,2.9,5.3l0,0c-0.2-2.2-0.2-4.1-0.2-6.6V0.8h2v16.2h-2.1l-5.1-8.2
		c-1.1-1.8-2.2-3.6-3-5.4l-0.1,0c0.1,2,0.2,4,0.2,6.7v6.9H12.3z"/>
	<path class="st0" d="M31.7,16.9L26.4,0.8h2.3l2.5,8c0.7,2.2,1.3,4.2,1.7,6h0c0.5-1.9,1.1-3.9,1.8-6l2.7-8h2.2L34,16.9H31.7z"/>
	<path class="st0" d="M55.3,8.7c0,5.6-3.4,8.5-7.5,8.5c-4.3,0-7.3-3.3-7.3-8.2c0-5.1,3.2-8.5,7.5-8.5C52.5,0.5,55.3,3.9,55.3,8.7z
		 M42.8,8.9c0,3.5,1.9,6.6,5.2,6.6c3.3,0,5.2-3,5.2-6.7c0-3.2-1.7-6.6-5.2-6.6C44.5,2.2,42.8,5.4,42.8,8.9z"/>
	<path class="st0" d="M61,16.9v-6.9l-5.1-9.3h2.4l2.3,4.5c0.6,1.2,1.1,2.2,1.6,3.3h0c0.5-1.1,1-2.1,1.6-3.3l2.3-4.5h2.4l-5.4,9.3
		v6.9H61z"/>
</g>
</svg>
